<?xml version="1.0" encoding="UTF-8"?>
<svg width="581px" height="375px" viewBox="0 0 581 375" version="1.1" xmlns="http://www.w3.org/2000/svg" xmlns:xlink="http://www.w3.org/1999/xlink">
    <title>DARKBLOCKSTER</title>
    <g id="DARKBLOCKSTER" stroke="none" stroke-width="1" fill="none" fill-rule="evenodd">
        <g id="Blockbuster_logo" transform="translate(6.000000, 7.000000)" fill-rule="nonzero">
            <g id="g4521" fill="#000000" stroke="#8D00FF" stroke-width="2">
                <path d="M46.9617892,355.598031 C46.9587892,355.185531 46.5332092,352.373031 46.0164592,349.348031 C45.4997192,346.323031 42.7661792,330.348031 39.9419392,313.848031 C37.1176892,297.348031 34.4042492,281.101421 33.9120692,277.744461 C33.4198792,274.387491 32.7540092,270.955051 32.4323492,270.116811 C32.0028992,268.997691 33.5402492,267.800601 38.2183092,265.611471 C55.5354492,257.507801 66.3663492,237.490401 63.0810892,219.660661 C59.5573492,200.536651 46.0147892,187.530181 27.0869092,185.091321 C22.8962792,184.551351 18.9968992,183.987581 18.4216292,183.838481 C17.8463592,183.689391 16.5589992,179.130541 15.5608292,173.707721 C14.5626692,168.284891 12.4479492,157.098031 10.8614592,148.848031 C9.27496919,140.598031 7.03630919,128.898031 5.88664919,122.848031 C4.73698919,116.798031 2.93487919,107.593391 1.88196919,102.393281 C-0.082339807,92.6919913 -0.488709807,88.3480313 0.568060193,88.3480313 C0.898324193,88.3480313 7.31081919,87.2392713 14.8180592,85.8841213 C28.2617592,83.4573713 59.2192292,78.0843913 69.9675792,76.3123613 C72.9925792,75.8136513 81.7675792,74.2687513 89.4675792,72.8792513 C106.188999,69.8618013 142.248599,63.5762413 149.967579,62.3334813 C152.992579,61.8464513 157.942579,60.9951413 160.967579,60.4416813 C163.992579,59.8882113 171.642579,58.5267513 177.967579,57.4162113 C202.886959,53.0408613 223.995519,49.3448613 234.967579,47.4357813 C261.506439,42.8181813 273.301109,40.7427613 292.467579,37.3179313 C299.067579,36.1385813 306.942579,34.7927113 309.967579,34.3271013 C312.992579,33.8614913 319.405079,32.7757213 324.217579,31.9142813 C329.030079,31.0528413 336.905079,29.6534113 341.717579,28.8044313 C346.530079,27.9554613 354.292579,26.5858413 358.967579,25.7608413 C363.642579,24.9358413 371.292579,23.5756413 375.967579,22.7381813 C380.642579,21.9007213 386.942579,20.8251513 389.967579,20.3480313 C392.992579,19.8709113 399.517579,18.7570013 404.467579,17.8726813 C409.417579,16.9883713 419.992579,15.1185613 427.967579,13.7175513 C435.942579,12.3165413 447.417579,10.2800613 453.467579,9.1920413 C459.517579,8.1040313 466.942579,6.8238713 469.967579,6.3472613 C475.538649,5.4694913 494.864899,1.9893713 502.793839,0.436161297 C506.746679,-0.338158703 507.210669,-0.212548703 508.169309,1.8914413 C508.746379,3.1579613 510.267349,4.4574313 511.549249,4.7791713 C513.310999,5.2213413 514.025259,6.2776313 514.475119,9.1060913 C515.629639,16.3651013 517.207279,21.2260313 518.579619,21.7526513 C519.342999,22.0455913 519.967579,23.4423113 519.967579,24.8564813 C519.967579,28.5791113 523.287919,34.4952613 526.845619,37.1117313 C530.419529,39.7401113 536.311169,48.4606313 539.841799,56.3480313 C541.842319,60.8171813 542.319109,63.5526513 542.385669,70.9428513 C542.439869,76.9599413 542.920369,80.5837513 543.805599,81.6513713 C544.541509,82.5389113 545.315549,85.9991013 545.525689,89.3406913 C546.001789,96.9117613 547.869629,103.348031 549.590679,103.348031 C551.593789,103.348031 553.017799,106.846911 552.357789,110.146961 C551.967809,112.096871 552.347789,113.999131 553.470249,115.711771 C554.962029,117.988511 555.022829,118.972581 553.956419,123.580971 C553.286069,126.477851 551.520989,131.139701 550.034019,133.940641 C547.530469,138.656451 547.426669,139.311191 548.631039,142.789951 C549.569369,145.500241 549.638779,147.093891 548.880219,148.511261 C548.129459,149.914071 548.156459,150.870691 548.974619,151.856511 C549.778189,152.824751 550.124579,162.093291 550.134299,182.886521 C550.149299,215.040841 549.751889,212.268501 556.512369,227.378771 C558.783289,232.454491 559.998299,236.855491 560.239389,240.878771 C560.436129,244.161861 561.293809,248.198031 562.145369,249.848031 C563.572379,252.613071 563.548139,253.082991 561.835879,255.848031 C560.814109,257.498031 559.975749,260.505211 559.972849,262.530641 C559.966849,266.492751 559.734599,266.656261 552.467589,267.806561 C548.605629,268.417871 536.809799,270.604591 509.467589,275.777941 C502.317589,277.130771 487.017589,279.877001 475.467589,281.880671 C436.239419,288.685891 427.481629,290.213811 415.467589,292.348501 C408.867589,293.521201 400.992589,294.871031 397.967589,295.348111 C394.942589,295.825191 388.642589,296.900721 383.967589,297.738181 C350.379009,303.755101 324.378449,308.326981 317.967589,309.343461 C314.942589,309.823101 308.642589,310.902821 303.967589,311.742851 C299.292589,312.582881 286.467589,314.826231 275.467589,316.728081 C264.467589,318.629931 247.367589,321.612491 237.467589,323.356001 C227.567589,325.099511 216.992589,326.916421 213.967589,327.393581 C210.942589,327.870741 200.592589,329.660991 190.967589,331.371901 C158.732419,337.101941 139.511539,340.464441 133.967589,341.343461 C130.942589,341.823101 124.417589,342.938121 119.467589,343.821301 C114.517589,344.704481 105.517589,346.291501 99.4675892,347.348031 C93.4175892,348.404561 84.4175892,349.986411 79.4675892,350.863261 C70.0044092,352.539591 47.6450592,356.340261 47.2175892,356.34517 C47.0800892,356.34517 46.9649792,356.010531 46.9617992,355.598031 L46.9617892,355.598031 Z" id="path4523"></path>
            </g>
            <g id="g4695" transform="translate(54.022011, 21.257452)">
                <rect id="rect4604" fill="#D80EFF" transform="translate(232.470723, 41.946893) rotate(-9.685421) translate(-232.470723, -41.946893) " x="-2.21689668" y="39.4478888" width="469.375239" height="4.99800782"></rect>
                <rect id="rect4606" fill="#D80EFF" transform="translate(21.553003, 191.489396) rotate(80.266756) translate(-21.553003, -191.489396) " x="-91.5131367" y="189.015894" width="226.13228" height="4.94700528"></rect>
                <rect id="rect4657" fill="#BB00FF" transform="translate(274.072078, 260.101549) rotate(-9.685421) translate(-274.072078, -260.101549) " x="39.3844586" y="257.602545" width="469.375239" height="4.99800782"></rect>
            </g>
        </g>
        <g transform="translate(317.500000, 180.000000) rotate(-10.000000) translate(-317.500000, -180.000000) translate(93.000000, 133.000000)" fill="#FFFFFF" fill-rule="nonzero">
            <path d="M0,2 L11.9538462,2 C19.6700855,2 24.8880342,2.51883879 27.6076923,3.55651637 C30.3273504,4.59419395 32.3955556,6.29894997 33.8123077,8.67078443 C35.2290598,11.0426189 36.1145299,13.6831377 36.4687179,16.592341 C36.822906,19.5015442 37,25.2180358 37,33.7418159 L37,65.2612724 C37,73.3403335 36.7406838,78.7418159 36.2220513,81.4657196 C35.7034188,84.1896232 34.7989744,86.3205683 33.5087179,87.8585547 C32.2184615,89.3965411 30.6246154,90.4712786 28.7271795,91.0827671 C26.8297436,91.6942557 23.9709402,92 20.1507692,92 L0,92 L0,2 Z M15.9764103,17.3983941 L15.9764103,76.6016059 C18.2786325,76.6016059 19.6953846,75.9252625 20.2266667,74.5725757 C20.7579487,73.2198888 21.0235897,69.5416924 21.0235897,63.5379864 L21.0235897,28.571958 C21.0235897,24.4953675 20.9350427,21.8826436 20.7579487,20.7337863 C20.5808547,19.584929 20.1760684,18.7418159 19.5435897,18.2044472 C18.9111111,17.6670784 17.7220513,17.3983941 15.9764103,17.3983941 Z" id="Shape"></path>
            <path d="M65.9398496,2 L75,92 L58.7969925,92 L58.0075188,75.8233477 L52.3308271,75.8233477 L51.3909774,92 L35,92 L43.0451128,2 L65.9398496,2 Z M57.556391,59.869055 C56.754386,49.6775788 55.952381,37.0957381 55.1503759,22.123533 C53.5463659,39.3193329 52.5438596,51.9011736 52.1428571,59.869055 L57.556391,59.869055 Z" id="Shape"></path>
            <path d="M73,2 L84.0957447,2 C91.4929078,2 96.5008865,2.42618901 99.1196809,3.27856702 C101.738475,4.13094503 103.873227,6.30821495 105.523936,9.81037678 C107.174645,13.3125386 108,18.8993206 108,26.5707227 C108,33.5750463 107.416667,38.2816553 106.25,40.6905497 C105.083333,43.0994441 102.787234,44.5447807 99.3617021,45.0265596 C102.464539,46.1754169 104.549645,47.7134033 105.617021,49.6405188 C106.684397,51.5676343 107.348404,53.3372452 107.609043,54.9493515 C107.869681,56.5614577 108,60.9993823 108,68.2631254 L108,92 L93.4414894,92 L93.4414894,62.0926498 C93.4414894,57.274861 93.1870567,54.291538 92.6781915,53.1426807 C92.1693262,51.9938233 90.8351064,51.4193947 88.6755319,51.4193947 L88.6755319,92 L73,92 L73,2 Z M88.6755319,17.3983941 L88.6755319,37.4107474 C90.4379433,37.4107474 91.6728723,37.0494132 92.3803191,36.3267449 C93.087766,35.6040766 93.4414894,33.2600371 93.4414894,29.2946263 L93.4414894,24.3471279 C93.4414894,21.4935145 93.1001773,19.6219889 92.4175532,18.732551 C91.7349291,17.843113 90.4875887,17.3983941 88.6755319,17.3983941 Z" id="Shape"></path>
            <polygon id="Path" points="148.125731 2 138.964912 42.6361952 149 92 132.464912 92 126.002924 53.42063 126.002924 92 110 92 110 2 126.002924 2 126.002924 36.9660284 133.111111 2"></polygon>
            <path d="M147,2 L162.857143,2 C167.865986,2 171.660374,2.57442866 174.240306,3.72328598 C176.820238,4.8721433 178.903061,7.19765287 180.488776,10.6998147 C182.07449,14.2019765 182.867347,19.8443484 182.867347,27.6269302 C182.867347,32.8894379 182.307313,36.5583694 181.187245,38.6337245 C180.067177,40.7090797 177.858503,42.302656 174.561224,43.4144534 C178.236054,44.6374305 180.727891,46.6664608 182.036735,49.5015442 C183.345578,52.3366275 184,56.6819024 184,62.5373687 L184,70.8758493 C184,76.9536751 183.528061,81.4564546 182.584184,84.3841878 C181.640306,87.3119209 180.136395,89.3131563 178.072449,90.3878938 C176.008503,91.4626313 171.779932,92 165.386735,92 L147,92 L147,2 Z M162.894898,17.3983941 L162.894898,37.4107474 C163.57449,37.3736875 164.103061,37.3551575 164.480612,37.3551575 C166.041156,37.3551575 167.035374,36.7899938 167.463265,35.6596665 C167.891156,34.5293391 168.105102,31.2958616 168.105102,25.9592341 C168.105102,23.1426807 167.928912,21.1692403 167.576531,20.0389129 C167.22415,18.9085855 166.764796,18.1951822 166.198469,17.8987029 C165.632143,17.6022236 164.530952,17.435454 162.894898,17.3983941 Z M162.894898,51.4193947 L162.894898,76.6016059 C165.135034,76.4904262 166.563435,75.9715874 167.180102,75.0450896 C167.796769,74.1185917 168.105102,71.839407 168.105102,68.2075355 L168.105102,59.8134651 C168.105102,55.9592341 167.828231,53.6244595 167.27449,52.8091414 C166.720748,51.9938233 165.260884,51.5305744 162.894898,51.4193947 Z" id="Shape"></path>
            <polygon id="Path" points="200.546529 2 200.546529 73.988882 210 73.988882 210 92 185 92 185 2"></polygon>
            <path d="M245,54.7172496 C245,63.7810709 244.854381,70.1981822 244.563142,73.9685833 C244.271903,77.7389844 243.360198,81.1843509 241.828029,84.3046829 C240.295859,87.4250148 238.22553,89.820984 235.617043,91.4925904 C233.008556,93.1641968 229.969541,94 226.5,94 C223.207734,94 220.251027,93.2106303 217.629877,91.6318909 C215.008727,90.0531516 212.900411,87.6850425 211.304928,84.5275637 C209.709446,81.370085 208.759754,77.9340051 208.455852,74.2193242 C208.151951,70.5046434 208,64.0039518 208,54.7172496 L208,39.2827504 C208,30.2189291 208.145619,23.8018178 208.436858,20.0314167 C208.728097,16.2610156 209.639802,12.8156491 211.171971,9.69531713 C212.704141,6.57498518 214.77447,4.179016 217.382957,2.5074096 C219.991444,0.835803201 223.030459,0 226.5,0 C229.792266,0 232.748973,0.78936969 235.370123,2.36810907 C237.991273,3.94684845 240.099589,6.31495752 241.695072,9.47243628 C243.290554,12.629915 244.240246,16.0659949 244.544148,19.7806758 C244.848049,23.4953566 245,29.9960482 245,39.2827504 L245,54.7172496 Z M229.007187,25.074096 C229.007187,20.8765066 228.848905,18.1926497 228.532341,17.0225252 C228.215777,15.8524007 227.563655,15.2673385 226.575975,15.2673385 C225.740246,15.2673385 225.100787,15.7409603 224.657598,16.6882039 C224.214408,17.6354475 223.992813,20.4307449 223.992813,25.074096 L223.992813,67.1985774 C223.992813,72.4362774 224.138433,75.6680498 224.429671,76.8938945 C224.72091,78.1197392 225.398357,78.7326615 226.462012,78.7326615 C227.550992,78.7326615 228.247433,78.0268722 228.551335,76.6152934 C228.855236,75.2037147 229.007187,71.8419285 229.007187,66.5299348 L229.007187,25.074096 Z" id="Shape"></path>
            <path d="M283,41.2329579 L267.344724,41.2329579 L267.344724,25.5198577 C267.344724,20.9508002 267.177387,18.0997827 266.842714,16.966805 C266.50804,15.8338273 265.770519,15.2673385 264.630151,15.2673385 C263.341039,15.2673385 262.522948,15.9545544 262.175879,17.3289864 C261.828811,18.7034183 261.655276,21.675163 261.655276,26.2442205 L261.655276,68.145821 C261.655276,72.5291444 261.828811,75.3894487 262.175879,76.7267338 C262.522948,78.064019 263.303853,78.7326615 264.518593,78.7326615 C265.683752,78.7326615 266.446064,78.064019 266.805528,76.7267338 C267.164992,75.3894487 267.344724,72.2505434 267.344724,67.3100178 L267.344724,55.9988145 L283,55.9988145 L283,59.5091879 C283,68.8330369 282.559966,75.4451689 281.679899,79.3455839 C280.799832,83.2459988 278.853769,86.6635052 275.841709,89.5981031 C272.829648,92.532701 269.117253,94 264.704523,94 C260.118258,94 256.337688,92.7555819 253.362814,90.2667457 C250.38794,87.7779095 248.417085,84.332543 247.450251,79.9306461 C246.483417,75.5287493 246,68.9073306 246,60.06639 L246,33.7107291 C246,27.2100375 246.148744,22.3345189 246.446231,19.0841731 C246.743719,15.8338273 247.629983,12.7042087 249.105025,9.69531713 C250.580067,6.68642561 252.625293,4.31831654 255.240704,2.59098992 C257.856114,0.863663308 260.861977,0 264.258291,0 C268.869347,0 272.674707,1.33728512 275.674372,4.01185536 C278.674037,6.68642561 280.644891,10.0203517 281.586935,14.0136337 C282.528978,18.0069156 283,24.2197194 283,32.6520451 L283,41.2329579 Z" id="Path"></path>
            <polygon id="Path" points="322.125731 2 312.964912 42.6361952 323 92 306.464912 92 300.002924 53.42063 300.002924 92 284 92 284 2 300.002924 2 300.002924 36.9660284 307.111111 2"></polygon>
            <path d="M353.690229,29.1973918 L339.058212,29.1973918 L339.058212,22.5109662 C339.058212,19.3906343 338.871102,17.40328 338.496881,16.5489034 C338.122661,15.6945268 337.49896,15.2673385 336.62578,15.2673385 C335.677755,15.2673385 334.960499,15.843114 334.474012,16.9946651 C333.987526,18.1462162 333.744283,19.8921162 333.744283,22.2323651 C333.744283,25.2412567 334.018711,27.507212 334.567568,29.0302312 C335.091476,30.5532503 336.575884,32.3920174 339.02079,34.5465323 C346.031185,40.7500494 350.446985,45.8391622 352.268191,49.8138708 C354.089397,53.7885793 355,60.1964039 355,69.0373444 C355,75.4637423 354.494802,80.1999605 353.484407,83.2459988 C352.474012,86.2920371 350.52183,88.8458803 347.627859,90.9075282 C344.733888,92.9691761 341.365904,94 337.523909,94 C333.307692,94 329.70894,92.8113021 326.727651,90.4339063 C323.746362,88.0565106 321.794179,85.0290456 320.871102,81.3515116 C319.948025,77.6739775 319.486486,72.4548508 319.486486,65.6941316 L319.486486,59.787789 L334.118503,59.787789 L334.118503,70.764671 C334.118503,74.1450306 334.324324,76.3181189 334.735967,77.283936 C335.147609,78.249753 335.877339,78.7326615 336.925156,78.7326615 C337.972973,78.7326615 338.752599,78.1197392 339.264033,76.8938945 C339.775468,75.6680498 340.031185,73.8478562 340.031185,71.4333136 C340.031185,66.1213199 339.544699,62.6480933 338.571726,61.0136337 C337.573805,59.3791741 335.116424,56.6488836 331.199584,52.8227623 C327.282744,48.9594942 324.68815,46.1549101 323.4158,44.4090101 C322.143451,42.6631101 321.089397,40.2485675 320.253638,37.1653823 C319.417879,34.0821972 319,30.1446354 319,25.3526971 C319,18.4433906 319.592516,13.3914246 320.777547,10.1967991 C321.962578,7.00217348 323.877339,4.50405058 326.52183,2.70243035 C329.16632,0.900810117 332.359667,0 336.101871,0 C340.193347,0 343.679834,0.984390437 346.561331,2.95317131 C349.442827,4.92195218 351.351351,7.40150168 352.286902,10.3918198 C353.222453,13.3821379 353.690229,18.461964 353.690229,25.6312982 L353.690229,29.1973918 Z" id="Path"></path>
            <polygon id="Path" points="388 2 388 20.011118 378.48913 20.011118 378.48913 92 362.472826 92 362.472826 20.011118 353 20.011118 353 2"></polygon>
            <polygon id="Path" points="387 2 412.964384 2 412.964384 20.011118 402.571233 20.011118 402.571233 37.0772082 412.29863 37.0772082 412.29863 54.1988882 402.571233 54.1988882 402.571233 73.988882 414 73.988882 414 92 387 92"></polygon>
            <path d="M414,2 L425.095745,2 C432.492908,2 437.500887,2.42618901 440.119681,3.27856702 C442.738475,4.13094503 444.873227,6.30821495 446.523936,9.81037678 C448.174645,13.3125386 449,18.8993206 449,26.5707227 C449,33.5750463 448.416667,38.2816553 447.25,40.6905497 C446.083333,43.0994441 443.787234,44.5447807 440.361702,45.0265596 C443.464539,46.1754169 445.549645,47.7134033 446.617021,49.6405188 C447.684397,51.5676343 448.348404,53.3372452 448.609043,54.9493515 C448.869681,56.5614577 449,60.9993823 449,68.2631254 L449,92 L434.441489,92 L434.441489,62.0926498 C434.441489,57.274861 434.187057,54.291538 433.678191,53.1426807 C433.169326,51.9938233 431.835106,51.4193947 429.675532,51.4193947 L429.675532,92 L414,92 L414,2 Z M429.675532,17.3983941 L429.675532,37.4107474 C431.437943,37.4107474 432.672872,37.0494132 433.380319,36.3267449 C434.087766,35.6040766 434.441489,33.2600371 434.441489,29.2946263 L434.441489,24.3471279 C434.441489,21.4935145 434.100177,19.6219889 433.417553,18.732551 C432.734929,17.843113 431.487589,17.3983941 429.675532,17.3983941 Z" id="Shape"></path>
        </g>
    </g>
</svg>